<svg xmlns="http://www.w3.org/2000/svg" viewBox="0 0 1200 675" width="1200" height="675" role="img" aria-label="LLM Pretraining Notes">
  <defs>
    <linearGradient id="g" x1="0" y1="0" x2="1" y2="1">
      <stop offset="0" stop-color="#0e7490"/>
      <stop offset="1" stop-color="#1e1b4b"/>
    </linearGradient>
  </defs>
  <rect width="1200" height="675" fill="url(#g)"/>
  <g fill="none" stroke="#67e8f9" stroke-width="3" opacity="0.5">
    <rect x="240" y="200" width="80" height="80" rx="10"/>
    <rect x="380" y="200" width="80" height="80" rx="10"/>
    <rect x="520" y="200" width="80" height="80" rx="10"/>
    <rect x="660" y="200" width="80" height="80" rx="10"/>
    <rect x="380" y="380" width="80" height="80" rx="10"/>
    <rect x="520" y="380" width="80" height="80" rx="10"/>
    <line x1="280" y1="280" x2="420" y2="380"/>
    <line x1="420" y1="280" x2="420" y2="380"/>
    <line x1="560" y1="280" x2="560" y2="380"/>
    <line x1="700" y1="280" x2="560" y2="380"/>
  </g>
  <g fill="#22d3ee" opacity="0.85">
    <circle cx="900" cy="240" r="10"/><circle cx="960" cy="300" r="10"/><circle cx="1010" cy="380" r="10"/>
    <path d="M880,440 C940,380 990,320 1040,240" fill="none" stroke="#a5f3fc" stroke-width="3"/>
  </g>
  <text x="80" y="600" font-family="Georgia, serif" font-style="italic" font-size="56" fill="#ecfeff">LLM Pretraining Notes</text>
  <text x="84" y="640" font-family="system-ui, sans-serif" font-size="26" fill="#a5f3fc">Transformers, MoE, scaling laws</text>
</svg>
