<svg xmlns="http://www.w3.org/2000/svg" viewBox="0 0 1200 675" width="1200" height="675" role="img" aria-label="TriFallNet">
  <defs>
    <linearGradient id="g" x1="0" y1="0" x2="1" y2="1">
      <stop offset="0" stop-color="#0e7490"/>
      <stop offset="1" stop-color="#0f172a"/>
    </linearGradient>
  </defs>
  <rect width="1200" height="675" fill="url(#g)"/>
  <g fill="none" stroke="#67e8f9" stroke-width="4" opacity="0.8">
    <polyline points="180,420 260,300 340,360 430,200 520,260 620,160"/>
    <circle cx="180" cy="420" r="8" fill="#67e8f9"/>
    <circle cx="260" cy="300" r="8" fill="#67e8f9"/>
    <circle cx="340" cy="360" r="8" fill="#67e8f9"/>
    <circle cx="430" cy="200" r="8" fill="#67e8f9"/>
    <circle cx="520" cy="260" r="8" fill="#67e8f9"/>
    <circle cx="620" cy="160" r="8" fill="#67e8f9"/>
  </g>
  <g stroke="#22d3ee" stroke-width="3" opacity="0.5">
    <line x1="760" y1="240" x2="820" y2="180"/>
    <line x1="820" y1="180" x2="820" y2="320"/>
    <line x1="820" y1="320" x2="770" y2="420"/>
    <line x1="820" y1="320" x2="880" y2="420"/>
    <line x1="820" y1="220" x2="760" y2="300"/>
    <line x1="820" y1="220" x2="900" y2="280"/>
  </g>
  <text x="80" y="600" font-family="Georgia, serif" font-style="italic" font-size="64" fill="#ecfeff">TriFallNet</text>
  <text x="84" y="640" font-family="system-ui, sans-serif" font-size="26" fill="#a5f3fc">Early fall detection from human pose</text>
</svg>
